# xmcd
#
# Track frame offsets:
#	150
#	14970
#	31456
#	47061
#
# Disc length: 1018 seconds
#
# Revision: 0
# Processed by: cddbd v1.4PL0 Copyright (c) Steve Scherf et al.
# Submitted via: dBpowerAMP V4.0
#
DISCID=3203f804
DTITLE=UD Project Vs Sunclub - Summerjam
DYEAR=2003
DGENRE=R&B
TTITLE0=Summerjam (DJ F.R.A.N.K.'s UK Edit)
TTITLE1=Summerjam (Dubaholics Edit)
TTITLE2=Summerjam (Original Edit)
TTITLE3=Summerjam (Free Heads Club Mix)
EXTD=
EXTT0=
EXTT1=
EXTT2=
EXTT3=
PLAYORDER=
